<?xml version="1.0" encoding="iso-8859-1"?>
<!-- Uploaded to: SVG Repo, www.svgrepo.com, Generator: SVG Repo Mixer Tools -->
<svg height="800px" width="800px" version="1.1" id="Layer_1" xmlns="http://www.w3.org/2000/svg" xmlns:xlink="http://www.w3.org/1999/xlink" 
	 viewBox="0 0 392.533 392.533" xml:space="preserve">
<path style="fill:#FFFFFF;" d="M196.267,21.786c-96.194,0-174.481,78.287-174.481,174.481s78.287,174.416,174.481,174.416
	s174.481-78.222,174.481-174.416S292.461,21.786,196.267,21.786z"/>
<path style="fill:#FFC10D;" d="M196.267,348.897c-84.17,0-152.695-68.461-152.695-152.695s68.525-152.63,152.695-152.63
	s152.695,68.461,152.695,152.695S280.436,348.897,196.267,348.897z"/>
<path style="fill:#194F82;" d="M196.267,0C87.984,0,0,87.984,0,196.267s87.984,196.267,196.267,196.267
	s196.267-87.984,196.267-196.267S304.549,0,196.267,0z M335.127,301.77c-28.832-22.885-46.804-57.083-49.778-94.578h85.01
	C368.226,242.554,355.362,275.135,335.127,301.77z M335.127,90.893c20.234,26.57,32.97,59.087,35.168,94.513h-85.01
	C288.323,147.911,306.295,113.713,335.127,90.893z M320.84,74.343c-33.616,27.022-54.497,67.232-57.406,111.063h-56.242V22.174
	C251.604,24.954,291.556,44.347,320.84,74.343z M185.341,22.174v163.168h-56.242c-3.038-43.83-23.79-83.976-57.406-111.063
	C100.978,44.347,140.929,24.954,185.341,22.174z M57.406,301.77c-20.234-26.634-33.099-59.216-35.232-94.578h85.075
	C104.339,244.622,86.303,278.885,57.406,301.77z M22.174,185.341c2.133-35.362,14.998-67.943,35.232-94.578
	c28.832,22.949,46.804,57.212,49.778,94.578H22.174z M71.693,318.19c33.616-27.022,54.497-67.232,57.406-111.063h56.242V370.36
	C140.929,367.58,100.978,348.186,71.693,318.19z M207.192,370.36V207.192h56.242c3.038,43.83,23.79,84.105,57.406,111.063
	C291.556,348.186,251.604,367.58,207.192,370.36z"/>
</svg>